# xmcd CD database file
#
# Track frame offsets:
#	150
#	15631
#	28850
#	44139
#	60733
#	77331
#	90809
#	103826
#	114910
#	128789
#	142605
#	152306
#	164350
#	187296
#	204197
#	217124
#	234352
#	246228
#
# Disc length: 3434 seconds
#
# Revision: 0
# Processed by: cddbd v1.4PL0 Copyright (c) Steve Scherf et al.
# Submitted via: CDex 1.51
#
DISCID=e60d6812
DTITLE=Billie Holiday - ºë¿ï
DYEAR=1900
DGENRE=Jazz
TTITLE0=BULE MOON
TTITLE1=I ONLY HAVE EYES FOR YOU
TTITLE2=TENDERLY
TTITLE3=STORMY WEATHER
TTITLE4=AUTUMN IN NEW YORK
TTITLE5=HOW DEEP IS THE OCEAN 
TTITLE6=EAST OF THE SUN
TTITLE7=I COT IT BAD AND THAT AIN'T GOOD
TTITLE8=DETOUR AHEAD
TTITLE9=MOANING LOW
TTITLE10=I AM GONNA LOCK MY HEART AND THROW AWAY THE KEY 
TTITLE11=I HEAR MUSIC
TTITLE12=WHEN I FALL IN LOVE
TTITLE13=EVERY TIME WE SAY GOODBYE
TTITLE14=BODY AND SOUL
TTITLE15=NIGHT AND DAY
TTITLE16=I'LL GET BY(AS LONG AS I HAVE YOU) 
TTITLE17=THE WAY YOU LOOK TONIGHT
EXTD=
EXTT0=
EXTT1=
EXTT2=
EXTT3=
EXTT4=
EXTT5=
EXTT6=
EXTT7=
EXTT8=
EXTT9=
EXTT10=
EXTT11=
EXTT12=
EXTT13=
EXTT14=
EXTT15=
EXTT16=
EXTT17=
PLAYORDER=
